<svg id="Capa_1" enable-background="new 0 0 512 512" height="512" viewBox="0 0 512 512" width="512" xmlns="http://www.w3.org/2000/svg"><g><g><path d="m115.012 275.212v22.298c0 17.914 11.87 33.662 29.105 38.603 32.263 9.249 79.766 23.229 79.441 25.266-6.997 43.848-20.638 63.625-20.638 87.313 0 29.393 23.935 53.307 53.354 53.308h-.275c29.419 0 53.08-23.915 53.08-53.308 0-23.688-13.642-43.465-20.638-87.313-.325-2.038 47.178-16.017 79.441-25.266 17.235-4.941 29.105-20.688 29.105-38.603v-22.298z" fill="#c193dc"/><g><path d="m111.012 228.916v-218.916h289.976v218.916" fill="#faf7f5"/><g><path d="m400.988 10h-148.713v87.445c0 13.676 11.097 24.764 24.785 24.764 13.689 0 24.786-11.087 24.786-24.764v-23.112c0 13.676 11.097 24.763 24.785 24.763 13.689 0 24.785-11.087 24.785-24.763v57.804c0 13.676 11.097 24.763 24.786 24.763 13.689 0 24.785-11.087 24.785-24.763v-122.137z" fill="#ff9eb1"/></g></g><g><g><path d="m210.794 228.916h-115.008v46.296h320.428v-46.296h-115.008" fill="#fff2a0"/></g></g></g><g><path d="m256 465.936c-5.523 0-10-4.477-10-10v-23.489c0-5.523 4.477-10 10-10 5.522 0 10 4.477 10 10v23.489c0 5.523-4.478 10-10 10z"/><g><path d="m256.18 238.92c-4.182 0-7.995-2.71-9.405-6.636-1.39-3.873-.201-8.321 2.936-10.987 3.272-2.781 8.098-3.143 11.745-.873 3.496 2.175 5.341 6.404 4.534 10.445-.921 4.614-5.102 8.051-9.81 8.051z"/></g><path d="m416.215 218.917h-5.228v-208.917c0-5.523-4.478-10-10-10h-289.974c-5.523 0-10 4.477-10 10v208.917h-5.228c-5.522 0-10 4.477-10 10v46.295c0 5.523 4.478 10 10 10h9.227v12.298c0 22.253 14.947 42.079 36.35 48.215 44.361 12.718 63.125 18.753 71.026 21.539-3.199 16.996-7.345 29.944-11.057 41.536-4.514 14.095-8.411 26.267-8.411 39.893 0 34.481 27.732 62.613 62.079 63.295.169.008.338.013.508.013h.768c.061 0 .122 0 .183-.001 34.573-.249 62.623-28.552 62.623-63.306 0-13.626-3.898-25.798-8.411-39.893-3.712-11.592-7.857-24.54-11.057-41.536 7.901-2.785 26.665-8.82 71.026-21.539 21.402-6.135 36.35-25.962 36.35-48.215v-12.298h9.227c5.522 0 10-4.477 10-10v-46.295c-.001-5.524-4.479-10.001-10.001-10.001zm-25.228-198.917v112.137c0 8.141-6.633 14.763-14.785 14.763s-14.785-6.623-14.785-14.763v-57.804c0-5.523-4.477-10-10-10-5.522 0-10 4.477-10 10 0 8.141-6.633 14.763-14.786 14.763-8.152 0-14.785-6.623-14.785-14.763 0-5.523-4.478-10-10-10s-10 4.477-10 10v23.112c0 8.141-6.633 14.763-14.786 14.763-8.152 0-14.785-6.623-14.785-14.763v-77.445zm-269.974 0h28.66v67.26c0 5.523 4.478 10 10 10s10-4.477 10-10v-67.26h26.301v109.6c0 5.523 4.478 10 10 10s10-4.477 10-10v-109.6h26.301v77.445c0 19.169 15.605 34.763 34.785 34.763 16.46 0 30.287-11.483 33.878-26.855 4.718 2.393 10.051 3.743 15.693 3.743 5.283 0 10.297-1.184 14.786-3.299v26.339c0 19.169 15.605 34.763 34.785 34.763 5.284 0 10.296-1.184 14.785-3.299v55.316h-89.781c-5.522 0-10 4.477-10 10s4.478 10 10 10h105.009v26.295h-300.43v-26.295h105.009c5.523 0 10-4.477 10-10s-4.477-10-10-10h-89.781v-198.916zm265.975 277.51c0 13.379-8.989 25.3-21.861 28.99-21.341 6.118-38.883 11.298-52.139 15.397-8.677 2.683-15.456 4.887-20.15 6.551-2.813.997-4.935 1.819-6.483 2.512-7.88 3.525-8.262 9.028-7.788 11.995 3.554 22.268 8.822 38.723 13.056 51.944 4.167 13.013 7.458 23.292 7.458 33.794 0 23.834-19.251 43.234-42.943 43.308-23.844-.074-43.217-19.473-43.217-43.308 0-10.502 3.291-20.78 7.458-33.794 4.233-13.221 9.502-29.676 13.056-51.943.474-2.967.092-8.471-7.788-11.996-1.549-.693-3.67-1.515-6.483-2.512-4.694-1.665-11.474-3.869-20.15-6.551-13.256-4.098-30.798-9.278-52.139-15.397-12.872-3.69-21.861-15.611-21.861-28.99v-12.298h261.977v12.298z"/></g></g></svg>