<?xml version="1.0" encoding="utf-8"?>
<!-- Generator: Adobe Illustrator 26.1.0, SVG Export Plug-In . SVG Version: 6.00 Build 0)  -->
<svg version="1.1" id="Capa_1" xmlns="http://www.w3.org/2000/svg" xmlns:xlink="http://www.w3.org/1999/xlink" x="0px" y="0px"
	 viewBox="0 0 512 512" style="enable-background:new 0 0 512 512;" xml:space="preserve">
<style type="text/css">
	.st0{fill:#008564;}
	.st1{fill:#FAF7F5;}
	.st2{fill:#76B900;}
	.st3{fill:#CCCCCC;}
</style>
<g>
	<g>
		<path class="st0" d="M115,275.2v22.3c0,17.9,11.9,33.7,29.1,38.6c32.3,9.2,79.8,23.2,79.4,25.3c-7,43.8-20.6,63.6-20.6,87.3
			c0,29.4,23.9,53.3,53.4,53.3H256c29.4,0,53.1-23.9,53.1-53.3c0-23.7-13.6-43.5-20.6-87.3c-0.3-2,47.2-16,79.4-25.3
			c17.2-4.9,29.1-20.7,29.1-38.6v-22.3L115,275.2z"/>
		<g>
			<path class="st1" d="M111,228.9V10h290v218.9"/>
			<g>
				<path class="st2" d="M401,10H252.3v87.4c0,13.7,11.1,24.8,24.8,24.8c13.7,0,24.8-11.1,24.8-24.8V74.3
					c0,13.7,11.1,24.8,24.8,24.8c13.7,0,24.8-11.1,24.8-24.8v57.8c0,13.7,11.1,24.8,24.8,24.8c13.7,0,24.8-11.1,24.8-24.8L401,10
					L401,10z"/>
			</g>
		</g>
		<g>
			<g>
				<path class="st3" d="M210.8,228.9h-115v46.3h320.4v-46.3h-115"/>
			</g>
		</g>
	</g>
	<g>
		<path d="M256,465.9c-5.5,0-10-4.5-10-10v-23.5c0-5.5,4.5-10,10-10c5.5,0,10,4.5,10,10v23.5C266,461.5,261.5,465.9,256,465.9z"/>
		<g>
			<path d="M256.2,238.9c-4.2,0-8-2.7-9.4-6.6c-1.4-3.9-0.2-8.3,2.9-11c3.3-2.8,8.1-3.1,11.7-0.9c3.5,2.2,5.3,6.4,4.5,10.4
				C265.1,235.5,260.9,238.9,256.2,238.9L256.2,238.9z"/>
		</g>
		<path d="M416.2,218.9H411V10c0-5.5-4.5-10-10-10H111c-5.5,0-10,4.5-10,10v208.9h-5.2c-5.5,0-10,4.5-10,10v46.3c0,5.5,4.5,10,10,10
			h9.2v12.3c0,22.3,14.9,42.1,36.3,48.2c44.4,12.7,63.1,18.8,71,21.5c-3.2,17-7.3,29.9-11.1,41.5c-4.5,14.1-8.4,26.3-8.4,39.9
			c0,34.5,27.7,62.6,62.1,63.3c0.2,0,0.3,0,0.5,0h0.8c0.1,0,0.1,0,0.2,0c34.6-0.2,62.6-28.6,62.6-63.3c0-13.6-3.9-25.8-8.4-39.9
			c-3.7-11.6-7.9-24.5-11.1-41.5c7.9-2.8,26.7-8.8,71-21.5c21.4-6.1,36.4-26,36.4-48.2v-12.3h9.2c5.5,0,10-4.5,10-10v-46.3
			C426.2,223.4,421.7,218.9,416.2,218.9L416.2,218.9z M391,20v112.1c0,8.1-6.6,14.8-14.8,14.8s-14.8-6.6-14.8-14.8V74.3
			c0-5.5-4.5-10-10-10c-5.5,0-10,4.5-10,10c0,8.1-6.6,14.8-14.8,14.8c-8.2,0-14.8-6.6-14.8-14.8c0-5.5-4.5-10-10-10s-10,4.5-10,10
			v23.1c0,8.1-6.6,14.8-14.8,14.8c-8.2,0-14.8-6.6-14.8-14.8V20L391,20z M121,20h28.7v67.3c0,5.5,4.5,10,10,10s10-4.5,10-10V20H196
			v109.6c0,5.5,4.5,10,10,10s10-4.5,10-10V20h26.3v77.4c0,19.2,15.6,34.8,34.8,34.8c16.5,0,30.3-11.5,33.9-26.9
			c4.7,2.4,10.1,3.7,15.7,3.7c5.3,0,10.3-1.2,14.8-3.3v26.3c0,19.2,15.6,34.8,34.8,34.8c5.3,0,10.3-1.2,14.8-3.3v55.3h-89.8
			c-5.5,0-10,4.5-10,10s4.5,10,10,10h105v26.3H105.8v-26.3h105c5.5,0,10-4.5,10-10s-4.5-10-10-10H121L121,20L121,20z M387,297.5
			c0,13.4-9,25.3-21.9,29c-21.3,6.1-38.9,11.3-52.1,15.4c-8.7,2.7-15.5,4.9-20.1,6.6c-2.8,1-4.9,1.8-6.5,2.5c-7.9,3.5-8.3,9-7.8,12
			c3.6,22.3,8.8,38.7,13.1,51.9c4.2,13,7.5,23.3,7.5,33.8c0,23.8-19.3,43.2-42.9,43.3c-23.8-0.1-43.2-19.5-43.2-43.3
			c0-10.5,3.3-20.8,7.5-33.8c4.2-13.2,9.5-29.7,13.1-51.9c0.5-3,0.1-8.5-7.8-12c-1.5-0.7-3.7-1.5-6.5-2.5
			c-4.7-1.7-11.5-3.9-20.1-6.6c-13.3-4.1-30.8-9.3-52.1-15.4c-12.9-3.7-21.9-15.6-21.9-29v-12.3h262L387,297.5L387,297.5z"/>
	</g>
</g>
</svg>
