<svg id="Capa_1" enable-background="new 0 0 511.936 511.936" height="512" viewBox="0 0 511.936 511.936" width="512" xmlns="http://www.w3.org/2000/svg"><g><g><path d="m307.053 53.962-92.678 92.79 178.545 178.772 92.712-92.824c21.782-21.809 21.781-57.163-.004-78.969l-99.675-99.774c-21.788-21.809-57.114-21.807-78.9.005z" fill="#c193dc"/><path d="m329.72 388.81 63.201-63.286-178.545-178.772-63.201 63.285" fill="#ff7d97"/><path d="m151.175 210.037-124.87 125.015c-21.783 21.808-21.782 57.163.003 78.97l63.84 60.312h154.149l85.423-85.524" fill="#faf7f5"/></g><g><path d="m305.301 484.334c-2.558 0-5.115-.975-7.067-2.925-3.907-3.903-3.911-10.235-.008-14.142l50.785-50.841c3.904-3.908 10.235-3.912 14.142-.008 3.908 3.903 3.911 10.235.008 14.142l-50.785 50.84c-1.953 1.956-4.514 2.934-7.075 2.934z"/><g><path d="m60.837 373.317c-2.559 0-5.119-.976-7.071-2.929-3.905-3.905-3.905-10.237 0-14.143l92.13-92.13c3.905-3.905 10.237-3.905 14.143 0 3.905 3.905 3.905 10.237 0 14.143l-92.13 92.13c-1.954 1.953-4.513 2.929-7.072 2.929z"/></g><g><g><path d="m401.648 484.334h-39.405c-5.523 0-10-4.477-10-10s4.477-10 10-10h39.405c5.523 0 10 4.477 10 10s-4.477 10-10 10z"/></g></g><g><path d="m392.95 441.976c-5.52 0-9.996-4.472-10-9.992l-.029-36.56c-.004-5.523 4.469-10.004 9.992-10.008h.008c5.52 0 9.996 4.472 10 9.992l.029 36.561c.004 5.522-4.469 10.003-9.992 10.008-.003-.001-.006-.001-.008-.001z"/></g><g><path d="m492.703 146.664-99.675-99.773c-12.427-12.44-28.95-19.29-46.526-19.289s-34.098 6.852-46.523 19.293l-280.75 281.09c-25.641 25.67-25.639 67.436.004 93.104.068.068.137.135.208.201l63.839 60.312c1.856 1.754 4.313 2.731 6.867 2.731h154.149c2.654 0 5.2-1.055 7.075-2.933l241.335-241.633c25.641-25.669 25.639-67.435-.003-93.103zm-252.552 317.67h-146.027l-60.837-57.476c-17.762-17.882-17.731-46.895.093-64.739l117.799-117.935 50.219 50.219c1.953 1.953 4.512 2.929 7.071 2.929s5.119-.976 7.071-2.929c3.905-3.905 3.905-10.237 0-14.143l-50.227-50.227 49.063-49.129 164.412 164.621-48.959 49.025-50.359-50.358c-3.905-3.905-10.237-3.905-14.142.001-3.905 3.905-3.905 10.237 0 14.142l50.367 50.367zm238.406-238.7-85.636 85.74-164.412-164.622 85.62-85.723c8.648-8.658 20.145-13.426 32.374-13.427 12.229 0 23.727 4.767 32.375 13.423l99.675 99.773c17.857 17.875 17.858 46.96.004 64.836z"/><g><path d="m240.568 309.428c-4.183 0-8.005-2.706-9.415-6.636-1.387-3.867-.2-8.331 2.939-10.987 3.285-2.778 8.087-3.141 11.748-.873 3.467 2.147 5.322 6.366 4.546 10.372-.899 4.643-5.074 8.124-9.818 8.124z"/></g></g></g></g></svg>