<svg id="Capa_1" enable-background="new 0 0 512 512" height="512" viewBox="0 0 512 512" width="512" xmlns="http://www.w3.org/2000/svg"><g><g><path d="m256 512c-68.093 0-132.324-26.884-180.862-75.699-48.453-48.731-75.138-113.118-75.138-181.301 0-44.599 11.907-88.592 34.433-127.222 18.937-32.476 44.956-60.593 75.832-82.091l-34.265-45.687h169.211l-42.303 169.212-38.552-51.403c-46.169 30.78-74.356 82.238-74.356 137.191 0 90.523 76.019 167 166 167s166-76.477 166-167v-15h90v15c0 68.183-26.685 132.57-75.138 181.301-48.538 48.815-112.769 75.699-180.862 75.699z"/></g></g></svg>