<svg id="Capa_1" enable-background="new 0 0 512 512" height="512" viewBox="0 0 512 512" width="512" xmlns="http://www.w3.org/2000/svg"><g><g><path d="m256 512c-68.093 0-132.324-26.884-180.862-75.699-48.453-48.731-75.138-113.118-75.138-181.301v-15h90v15c0 90.523 76.019 167 166 167s166-76.477 166-167c0-54.953-28.187-106.411-74.357-137.191l-38.552 51.403-42.302-169.212h169.211l-34.265 45.687c30.876 21.498 56.895 49.615 75.832 82.091 22.526 38.63 34.433 82.623 34.433 127.222 0 68.183-26.685 132.57-75.138 181.301-48.538 48.815-112.769 75.699-180.862 75.699z"/></g></g></svg>